HIERARCHY
ROOT hip
{
	OFFSET 0.000000 0.000000 0.000000 
	CHANNELS 6 Xposition Yposition Zposition Xrotation Zrotation Yrotation
	JOINT abdomen
	{
		OFFSET 0.000000 3.402643 0.000000 
		CHANNELS 3 Xrotation Zrotation Yrotation
		JOINT chest
		{
			OFFSET 0.000000 8.438565 -0.680529 
			CHANNELS 3 Xrotation Zrotation Yrotation
			JOINT neck
			{
				OFFSET 0.000000 10.207942 -0.272212 
				CHANNELS 3 Xrotation Zrotation Yrotation
				JOINT head
				{
					OFFSET 0.000000 3.130431 0.000000 
					CHANNELS 3 Xrotation Zrotation Yrotation
					End Site
					{
						OFFSET 0.000000 3.130435 0.000000 
					}
				}
			}
			JOINT lCollar
			{
				OFFSET 3.470700 6.669187 -0.816635 
				CHANNELS 3 Yrotation Zrotation Xrotation
				JOINT lShldr
				{
					OFFSET 3.198488 0.000000 0.000000 
					CHANNELS 3 Zrotation Yrotation Xrotation
					JOINT lForeArm
					{
						OFFSET 10.139888 0.000000 0.000000 
						CHANNELS 3 Yrotation Zrotation Xrotation
						JOINT lHand
						{
							OFFSET 8.370511 0.000000 0.000000 
							CHANNELS 3 Zrotation Yrotation Xrotation
							End Site
							{
								OFFSET 4.083176 0.000000 0.000000 
							}
						}
					}
				}
			}
			JOINT rCollar
			{
				OFFSET -3.470700 6.669187 -0.816635 
				CHANNELS 3 Yrotation Zrotation Xrotation
				JOINT rShldr
				{
					OFFSET -3.198488 0.000000 0.000000 
					CHANNELS 3 Zrotation Yrotation Xrotation
					JOINT rForeArm
					{
						OFFSET -10.139888 0.000000 0.000000 
						CHANNELS 3 Yrotation Zrotation Xrotation
						JOINT rHand
						{
							OFFSET -8.370511 0.000000 0.000000 
							CHANNELS 3 Zrotation Yrotation Xrotation
							End Site
							{
								OFFSET -4.083176 0.000000 0.000000 
							}
						}
					}
				}
			}
		}
	}
	JOINT lThigh
	{
		OFFSET 5.308129 -1.633274 1.361059 
		CHANNELS 3 Xrotation Zrotation Yrotation
		JOINT lShin
		{
			OFFSET -2.041588 -20.007561 0.000000 
			CHANNELS 3 Xrotation Zrotation Yrotation
			JOINT lFoot
			{
				OFFSET 0.000000 -19.190928 -1.224953 
				CHANNELS 3 Xrotation Yrotation Zrotation
				End Site
				{
					OFFSET 0.000000 -2.449906 4.627600 
				}
			}
		}
	}
	JOINT rThigh
	{
		OFFSET -5.308129 -1.633274 1.361059 
		CHANNELS 3 Xrotation Zrotation Yrotation
		JOINT rShin
		{
			OFFSET 2.041588 -20.007561 0.000000 
			CHANNELS 3 Xrotation Zrotation Yrotation
			JOINT rFoot
			{
				OFFSET 0.000000 -19.190928 -1.224953 
				CHANNELS 3 Xrotation Yrotation Zrotation
				End Site
				{
					OFFSET 0.000000 -2.449906 4.627600 
				}
			}
		}
	}
}
MOTION
Frames: 8
Frame Time: 0.033333
-1.527494 52.134880 1.651126 8.427734 -0.361328 -36.630920 21.345371 -4.706170 -4.780720 -20.195313 13.007813 5.373292 51.553619 8.070152 2.616707 -65.292969 -7.675780 -4.054039 2.000000 -2.000000 0.000000 -65.634766 41.308594 -9.876364 -131.289703 1.809843 -2.566305 -54.770004 12.294366 -4.511980 -2.000000 2.000000 0.000000 95.986328 -27.724611 -8.647122 52.381725 1.518301 -1.932387 6.280074 -55.251324 3.632182 10.988737 8.707456 6.901325 29.829803 -5.028510 -3.095067 16.065069 14.328993 0.736113 -13.173013 4.393934 -18.232714 6.150161 5.697524 0.543741 8.222973 -13.055731 -1.858000 
-3.072090 52.428040 3.301014 8.085938 -0.537109 -36.308685 21.745996 -6.550990 -3.979865 -20.390625 12.480469 5.607579 51.553619 8.070152 2.616707 -65.664063 -6.230468 -6.962891 2.000000 -2.000000 0.000000 -64.931641 41.357426 -8.675185 -131.289703 1.809843 -2.566305 -54.709534 11.773150 -4.999471 -2.000000 2.000000 0.000000 98.798828 -25.869143 -10.541370 52.017269 1.658273 -1.816656 5.966685 -54.535870 3.227246 5.024730 9.778822 7.337088 34.952114 -4.780243 -2.928487 17.637854 14.525623 0.159486 -9.196722 4.775223 -18.747149 4.767442 6.247981 0.085082 6.747017 -12.170341 -1.426860 
-4.582492 52.699757 4.953378 7.714845 -0.361328 -35.927795 21.960857 -8.385188 -3.210818 -20.595705 11.972656 5.830078 51.553619 8.070152 2.616707 -65.898438 -5.175781 -8.965725 2.000000 -2.000000 0.000000 -64.472656 41.572266 -7.854845 -131.289703 1.809843 -2.566305 -54.421474 11.142978 -5.396674 -2.000000 2.000000 0.000000 100.087891 -24.501953 -10.482565 52.381741 1.508552 -1.932955 5.726084 -53.244877 3.365534 -0.713342 10.975105 7.483763 40.046494 -4.693208 -3.810239 19.246305 15.792637 -0.412184 -5.958224 5.436683 -19.828194 3.156098 5.945287 0.225592 6.415000 -10.968602 -1.222110 
-6.007485 52.923573 6.611945 7.353516 0.000000 -36.220703 22.165157 -10.052329 -2.361290 -20.976563 11.630860 5.888672 51.553619 8.070152 2.616707 -66.201172 -4.628906 -10.117974 2.000000 -2.000000 0.000000 -64.306641 41.503902 -7.607422 -131.460403 1.810860 -2.380883 -54.465389 10.470465 -5.765065 -2.000000 2.000000 0.000000 98.271484 -23.056641 -7.308510 52.745419 1.347369 -2.020817 6.242695 -51.783905 2.844630 -6.413174 11.994811 7.539131 44.957436 -4.328828 -4.184579 20.498825 16.539221 -1.065632 -2.466098 5.807404 -19.965155 1.935764 5.923211 0.076964 6.271372 -9.746376 -0.618076 
-7.245960 53.066174 8.235068 6.494141 0.869141 -37.695313 22.384899 -11.703010 -1.531074 -21.171875 11.123049 6.123048 51.553619 8.070152 2.616707 -66.357422 -4.443358 -10.849610 2.000000 -2.000000 0.000000 -64.814453 41.406254 -8.470103 -131.460403 1.810860 -2.380883 -54.767456 10.641764 -6.026527 -2.000000 2.000000 0.000000 94.882813 -21.826172 -2.327848 53.799831 1.356550 -2.010505 6.898809 -49.826317 2.426832 -11.494328 13.818554 7.106094 47.066795 -4.252572 -4.212649 20.720585 15.777816 -1.579595 0.813713 5.285523 -18.922979 -0.192364 6.109299 -0.117540 6.660109 -8.805768 -0.646416 
-8.362936 53.148808 9.867044 5.625000 2.246094 -39.853516 22.453627 -13.289082 -0.846300 -21.191408 10.771485 6.425782 51.553619 8.070152 2.616707 -66.357422 -4.609375 -11.162110 2.000000 -2.000000 0.000000 -65.781250 41.074219 -10.214845 -131.818710 1.786949 -2.623643 -55.476582 11.204861 -5.780408 -2.000000 2.000000 0.000000 91.728516 -20.126953 1.402890 55.029758 1.365161 -1.990447 7.303993 -48.696999 1.892767 -13.678384 14.780572 8.005965 41.771881 -4.403308 -3.897822 16.877922 13.595736 -1.953349 4.235059 4.329905 -17.732485 -2.427332 5.919736 -0.226560 6.129345 -7.757109 -1.026421 
-9.556339 52.992401 11.640365 5.078125 3.134766 -41.210934 22.541883 -14.182924 -0.277900 -21.201172 10.419922 6.554500 51.553619 8.070152 2.616707 -66.230476 -5.146484 -11.044923 2.000000 -2.000000 0.000000 -66.582031 40.966797 -11.614691 -132.012589 1.974447 -2.595434 -55.604691 11.543691 -6.016007 -2.000000 2.000000 0.000000 89.570313 -18.242188 2.936398 55.569210 1.194227 -2.078619 6.587123 -47.616459 2.566426 -15.601716 14.184878 9.080782 35.056248 -4.762293 -3.115961 12.267323 12.068079 -2.060411 7.378879 3.854055 -16.236649 -5.167926 5.937725 -0.308263 5.102414 -7.245200 -0.775003 
-10.851126 52.762089 13.540216 5.273438 3.486274 -41.689304 22.440338 -14.684801 0.279930 -21.210938 10.078125 6.847412 51.553619 8.070152 2.616707 -66.337891 -5.996093 -10.634766 2.000000 -2.000000 0.000000 -66.845703 40.820313 -12.122524 -131.818710 1.786949 -2.623643 -55.429886 11.544778 -6.033296 -2.000000 2.000000 0.000000 87.021484 -17.109379 3.649471 56.078636 1.383438 -2.136063 5.518795 -47.100384 3.141057 -17.586210 13.152506 10.402685 28.180166 -5.128079 -3.179427 6.134249 11.898450 -1.382885 9.737850 3.637509 -15.294095 -5.069277 5.850471 -0.635743 3.814662 -6.540874 -0.308068 
